<svg width="233" height="33" viewBox="0 0 233 33" fill="none" xmlns="http://www.w3.org/2000/svg">
<g clip-path="url(#clip0_238_54050)">
<path d="M68.7849 25.5772V27.384H55.6167V5.94458H57.5318V25.5772H68.7849Z" fill="#D2ECF9"/>
<path d="M71.9425 6.50761C71.9425 5.79583 72.5439 5.23267 73.2641 5.23267C73.9842 5.23267 74.6173 5.78801 74.6173 6.50761C74.6173 7.22721 74.0159 7.81385 73.2641 7.81385C72.5123 7.81385 71.9425 7.25068 71.9425 6.50761ZM72.354 11.537H74.1741V27.3761H72.354V11.537Z" fill="#D2ECF9"/>
<path d="M77.941 25.2408L78.9777 23.9345C80.1727 25.2721 82.0245 26.109 84.2244 26.109C86.741 26.109 88.6244 24.9905 88.6244 23.2541C88.6244 21.3299 86.5194 20.7667 84.1928 20.2114C81.4942 19.5309 78.4713 18.7487 78.4713 15.6122C78.4713 12.726 81.2094 11.1694 84.3511 11.1694C86.7726 11.1694 88.7194 12.1002 90.0093 13.3752L88.9726 14.7127C87.9043 13.5629 86.2741 12.8198 84.3827 12.8198C82.1511 12.8198 80.3626 13.8445 80.3626 15.4949C80.3626 17.4503 82.4993 18.0135 84.8892 18.5688C87.564 19.218 90.5157 19.9689 90.5157 23.0742C90.5157 26.1794 87.7776 27.7672 84.264 27.7672C81.5576 27.7672 79.3576 26.7113 77.949 25.2486" fill="#D2ECF9"/>
<path d="M97.4718 13.1876V23.3168C97.4718 25.2722 98.5401 26.0153 100.305 26.0153C101.247 26.0153 101.943 25.765 102.6 25.4286V27.1338C101.816 27.5405 101.057 27.7595 99.9567 27.7595C97.1948 27.7595 95.6517 26.3594 95.6517 23.5983V13.1954H92.5416V11.5528H95.6517V7.14136H97.4718V11.5528H102.592V13.1954H97.4718V13.1876Z" fill="#D2ECF9"/>
<path d="M105.9 6.50761C105.9 5.79583 106.493 5.23267 107.221 5.23267C107.949 5.23267 108.575 5.78801 108.575 6.50761C108.575 7.22721 107.973 7.81385 107.221 7.81385C106.47 7.81385 105.9 7.25068 105.9 6.50761ZM106.311 11.537H108.131V27.3761H106.311V11.537Z" fill="#D2ECF9"/>
<path d="M127.907 17.7788V27.3761H126.087V18.3029C126.087 15.0412 123.919 12.8981 120.651 12.8981C117.382 12.8981 114.961 15.0725 114.961 18.3655V27.3761H113.141V11.5371H114.961V14.5172C116.156 12.374 118.356 11.1616 121.181 11.1616C125.201 11.1616 127.907 13.7741 127.907 17.7788Z" fill="#D2ECF9"/>
<path d="M147.905 32.038L146.022 32.476C145.99 30.896 144.573 29.8322 142.468 29.8322H136.153C133.669 29.8322 132.007 28.4321 132.007 26.3515C132.007 24.9514 132.727 23.653 133.89 23.0273C132.505 21.7836 131.658 20.0159 131.658 17.9979C131.658 14.1183 134.737 11.1617 138.86 11.1617C140.435 11.1617 141.875 11.5997 143.038 12.3741C143.26 10.7315 144.542 9.66772 146.401 9.66772H147.596V11.3494H146.496C145.207 11.3494 144.328 12.155 144.328 13.3987V13.4926C145.396 14.6737 146.022 16.2224 146.022 17.9979C146.022 21.8775 142.943 24.8028 138.86 24.8028C137.443 24.8028 136.122 24.4587 135.053 23.8408C134.27 24.2788 133.827 25.0844 133.827 25.9213C133.827 27.2276 134.895 28.0645 136.462 28.0645H142.777C145.697 28.0645 147.707 29.5897 147.897 32.038M138.844 23.0899C141.859 23.0899 144.122 20.8841 144.122 17.9979C144.122 15.1117 141.859 12.8746 138.844 12.8746C135.829 12.8746 133.534 15.0804 133.534 17.9979C133.534 20.9154 135.829 23.0899 138.844 23.0899Z" fill="#D2ECF9"/>
<path d="M167.436 9.42526H160.899V27.384H157.156V9.42526H150.588V5.94458H167.436V9.42526Z" fill="#D2ECF9"/>
<path d="M177.217 11.2869V14.8614H176.624C173.482 14.8614 171.622 16.7543 171.622 19.6796V27.384H168.101V11.5372H171.622V13.868C172.817 12.2489 174.511 11.2869 176.624 11.2869H177.217Z" fill="#D2ECF9"/>
<path d="M196.051 11.5371V27.3839H192.53V25.1156C191.208 26.7582 189.262 27.7594 186.903 27.7594C182.377 27.7594 179.013 24.1848 179.013 19.4683C179.013 14.7518 182.377 11.1694 186.903 11.1694C189.262 11.1694 191.208 12.1628 192.53 13.8132V11.5449H196.051V11.5371ZM192.53 19.4605C192.53 16.6603 190.425 14.5171 187.592 14.5171C184.759 14.5171 182.63 16.6603 182.63 19.4605C182.63 22.2607 184.735 24.396 187.592 24.396C190.449 24.396 192.53 22.2529 192.53 19.4605Z" fill="#D2ECF9"/>
<path d="M199.264 19.4605C199.264 14.7362 202.944 11.1616 207.843 11.1616C211.048 11.1616 213.754 12.7182 215.194 15.1038L212.148 16.9341C211.301 15.4714 209.726 14.5093 207.843 14.5093C205.018 14.5093 202.873 16.6525 202.873 19.4527C202.873 22.2529 205.01 24.3882 207.843 24.3882C209.726 24.3882 211.301 23.4261 212.148 21.9635L215.194 23.7938C213.746 26.1872 211.048 27.7359 207.843 27.7359C202.944 27.7359 199.264 24.1614 199.264 19.4449" fill="#D2ECF9"/>
<path d="M223.25 21.541L221.557 23.3401V27.3839H218.035V5.01367H221.557V18.6861L228.189 11.537H232.778L225.735 18.9286L233 27.3839H228.347L223.25 21.541Z" fill="#D2ECF9"/>
<path fill-rule="evenodd" clip-rule="evenodd" d="M34.7407 0H0V33H34.7407V0ZM17.5444 17.4425V19.8438H8.11935V5.04503H10.7071V17.4425H17.5444ZM22.1106 15.5575H26.6213V13.1484H14.9884V15.5575H19.5228V27.955H22.1106V15.5575Z" fill="#D2ECF9"/>
</g>
<defs>
<clipPath id="clip0_238_54050">
<rect width="233" height="33" fill="white"/>
</clipPath>
</defs>
</svg>
