<svg width="177" height="64" viewBox="0 0 177 64" fill="none" xmlns="http://www.w3.org/2000/svg">
<g opacity="0.4">
<path d="M127.586 28.9247L126.858 29.1219C126.166 26.7557 125.005 25.742 123.367 25.742C122.217 25.742 121.402 26.5015 121.402 27.7138C121.402 28.8677 122.348 29.4885 124.921 30.5306C127.289 31.404 128.271 32.4732 128.271 34.3428C128.271 37.1873 126.043 38.9714 122.385 38.9714C120.625 38.9714 118.632 38.5771 117.509 38.1265L117.368 34.1741L118.06 34.0331C119.099 36.7374 120.428 37.7606 122.158 37.7606C123.656 37.7606 124.442 36.7184 124.442 35.6478C124.442 34.5772 123.833 33.9579 121.494 33.1137C119.266 32.3812 117.741 31.4238 117.741 29.0481C117.741 26.7111 119.79 24.7291 123.273 24.7291C124.921 24.7291 126.418 25.011 127.401 25.4616L127.586 28.9247ZM112.517 30.164C112.601 28.3054 112.226 25.6201 110.701 25.6201C109.138 25.6201 108.277 28.1272 108.25 30.2772L112.517 30.164ZM111.076 24.7174C114.912 24.7174 116.765 27.5356 116.794 31.2346H108.157C108.128 34.5115 109.861 36.9894 113.099 36.9894C114.511 36.9894 115.326 36.595 116.187 35.9757L116.589 36.4263C115.643 37.7219 113.677 38.9605 111.057 38.9605C106.845 38.9605 103.925 36.0597 103.925 31.9656C103.916 28.2667 106.312 24.7174 111.076 24.7174ZM98.6288 31.5713C98.5443 28.6501 97.4786 26.3234 95.4279 26.3234C94.9401 26.3234 94.5667 26.4081 93.9865 26.6052L94.1539 37.8621C94.3599 37.9468 94.8455 38.003 95.1927 38.003C97.1859 38.003 98.6288 35.176 98.6288 31.5713ZM102.904 31.3529C102.904 35.9816 99.9922 38.967 95.0522 38.967C93.2927 38.967 91.4677 38.6851 89.8866 38.3193C90.0271 36.4606 90.0271 24.9497 89.8866 22.7807C89.7461 21.6538 89.4279 21.1185 88.5573 21.006L87.9771 20.9498V20.4335L94.0702 19.3066C94.0411 20.256 93.9858 22.7807 93.9858 25.7377C95.053 25.2023 96.035 24.8927 97.3635 24.8927C100.536 24.8927 102.904 27.5977 102.904 31.3529ZM87.3903 28.8385C85.5093 27.5992 83.4884 28.1345 83.0851 28.8385C82.9075 31.0075 82.9446 34.3406 83.1142 36.0583C83.1987 37.1851 83.5168 37.6635 84.3867 37.7482L85.5369 37.8606V38.5931H76.9301V37.8606L77.5948 37.7482C78.4276 37.6635 78.718 37.1858 78.7741 36.0583C78.9801 34.2274 79.0361 30.3875 78.7741 28.2747C78.718 27.0639 78.4276 26.6125 77.5948 26.5001L76.9301 26.4154V25.9085L83.0786 24.7255L82.9941 27.8804C84.4355 24.613 87.2993 24.2186 88.8528 25.0921L87.3903 28.8385ZM67.2132 31.8619C67.2132 35.3075 68.1399 38.1243 70.0115 38.1243C72.0331 38.1243 72.6133 35.3637 72.6133 31.8619C72.6133 28.3602 71.7149 25.6281 69.8149 25.6281C67.7766 25.6281 67.2132 28.3039 67.2132 31.8619ZM76.9651 31.8057C76.9651 35.7581 74.3633 38.9627 69.7218 38.9627C65.1545 38.9627 62.8526 35.9115 62.8526 31.9116C62.8526 27.987 65.4544 24.7196 70.0959 24.7196C74.6632 24.7196 76.9651 27.7898 76.9651 31.7984V31.8057ZM65.0118 25.0008L64.0654 25.2827C63.2603 22.5126 61.8378 20.9359 59.386 20.9359H56.1851C56.0075 22.7763 55.9231 25.6208 56.0075 28.6917L58.1405 28.5792C59.5818 28.5792 60.1897 27.5371 60.5428 26.0232H61.3479V32.4265H60.5289C60.1824 30.8782 59.5826 29.8266 58.1266 29.7412L55.9937 29.7119C55.9937 31.9934 56.0228 33.9462 56.1713 35.1293C56.3118 36.8192 56.7799 37.589 58.0152 37.7489L59.1756 37.8614V38.5939H48.7285V37.8614L49.5992 37.7489C50.8061 37.5809 51.3026 36.8192 51.4431 35.1293C51.6761 32.3688 51.7343 26.4731 51.4431 23.1962C51.3026 21.4435 50.8069 20.7461 49.5992 20.6051L48.7285 20.4642V19.7046H64.9914L65.0118 25.0008Z" fill="#2A1F41"/>
</g>
</svg>
