<svg width="177" height="64" viewBox="0 0 177 64" fill="none" xmlns="http://www.w3.org/2000/svg">
<g opacity="0.4">
<path fill-rule="evenodd" clip-rule="evenodd" d="M33.3839 19.3066C33.2928 20.8601 33.2034 22.4136 33.1105 24.0188C32.3169 23.9902 31.5662 23.9635 30.7762 23.9367C30.7226 22.9576 30.669 22.0123 30.6153 21.0313C29.3999 21.0313 28.206 21.0313 26.9834 21.0313C26.9834 23.3446 26.9834 25.6418 26.9834 27.9783C27.5036 27.9783 28.0129 27.9783 28.5563 27.9783C28.6778 27.4735 28.7994 26.9724 28.9245 26.448C29.4661 26.448 29.9933 26.448 30.5456 26.448C30.5456 28.0568 30.5456 29.6263 30.5456 31.2261C30.0273 31.2261 29.5125 31.2261 28.9531 31.2261C28.8226 30.7125 28.6904 30.1881 28.5527 29.6459C28.0272 29.6459 27.5268 29.6459 26.9888 29.6459C26.9888 32.1036 26.9888 34.5453 26.9888 37.0191C28.2006 37.0191 29.3981 37.0191 30.6404 37.0191C30.7565 35.9704 30.8727 34.9288 30.9943 33.8301C31.8129 33.8569 32.61 33.8836 33.4519 33.9122C33.5162 35.5513 33.5788 37.16 33.6431 38.7973C29.6359 38.7973 25.6697 38.7973 21.6964 38.7973C21.6964 38.2266 21.6964 37.6719 21.6964 37.0851C22.2738 36.987 22.8118 36.8943 23.3748 36.7962C23.3748 31.6007 23.3748 26.4248 23.3748 21.2043C22.7331 21.1366 22.1165 21.0688 21.498 21.001C21.498 20.4374 21.498 19.8756 21.498 19.3066C25.4606 19.3066 29.4214 19.3066 33.3839 19.3066Z" fill="#2A1F41"/>
<path fill-rule="evenodd" clip-rule="evenodd" d="M75.6622 45.4072C75.6944 44.931 75.723 44.5065 75.7516 44.0677C76.1877 43.9714 76.5898 43.8822 77.0188 43.7877C77.0188 38.2515 77.0188 32.7297 77.0188 27.156C76.5326 27.0829 76.0393 27.008 75.5156 26.9295C75.5156 26.489 75.5156 26.0502 75.5156 25.5401C76.8132 25.36 78.1287 25.1781 79.4907 24.989C79.6337 25.5009 79.7677 25.9753 79.9072 26.4747C79.9626 26.4266 80.0215 26.3856 80.0662 26.332C81.0368 25.2191 82.2861 24.8356 83.716 24.973C85.5087 25.1442 86.4953 26.2732 86.9904 27.8855C87.2103 28.6043 87.3586 29.3605 87.4158 30.1078C87.5338 31.6488 87.5588 33.1987 87.2603 34.7255C87.1495 35.2891 86.994 35.8562 86.7688 36.3842C86.0789 37.9929 84.817 38.8419 83.0815 38.9917C82.195 39.0684 81.3281 38.9846 80.5023 38.6172C80.4505 38.594 80.3915 38.5869 80.3075 38.5655C80.3075 40.3062 80.3075 42.0238 80.3075 43.7859C80.7347 43.8733 81.1654 43.9625 81.6588 44.0642C81.6284 44.5047 81.5998 44.9399 81.5694 45.4036C79.5962 45.4072 77.6551 45.4072 75.6622 45.4072ZM80.2843 36.7141C81.346 37.1636 82.3648 37.1868 83.405 36.8211C83.6123 36.748 83.7321 36.6267 83.7821 36.427C83.909 35.9097 84.0645 35.3961 84.1414 34.8717C84.3702 33.279 84.3416 31.6756 84.2218 30.0757C84.1807 29.5335 84.0788 28.9842 83.918 28.4652C83.5641 27.3326 82.7937 26.8974 81.6176 27.0901C81.5587 27.099 81.5015 27.1168 81.4443 27.1293C80.7383 27.2648 80.2879 27.8017 80.2879 28.5223C80.2861 31.1191 80.2861 33.716 80.2861 36.3128C80.2843 36.4305 80.2843 36.5483 80.2843 36.7141Z" fill="#2A1F41"/>
<path fill-rule="evenodd" clip-rule="evenodd" d="M119.882 37.1051C120.386 37.205 120.82 37.2924 121.282 37.3852C121.255 37.8667 121.231 38.3197 121.205 38.7995C119.68 38.7995 118.184 38.7995 116.656 38.7995C116.65 38.6979 116.642 38.598 116.642 38.4999C116.642 35.4821 116.65 32.4661 116.634 29.4501C116.633 29.0435 116.538 28.6261 116.413 28.2373C116.261 27.7647 115.884 27.5096 115.396 27.4026C114.926 27.2991 114.465 27.3384 114.037 27.5185C113.66 27.6773 113.358 27.9751 113.356 28.421C113.347 31.2747 113.355 34.1284 113.356 36.9803C113.356 37.0088 113.371 37.0374 113.389 37.1105C113.798 37.1943 114.229 37.2817 114.726 37.3834C114.697 37.8507 114.668 38.3144 114.638 38.8031C112.658 38.8031 110.715 38.8031 108.774 38.8031C108.774 38.3251 108.774 37.8721 108.774 37.3923C109.224 37.296 109.64 37.2068 110.082 37.1123C110.082 33.8537 110.082 30.6041 110.082 27.2991C109.601 27.2439 109.108 27.1886 108.586 27.1279C108.586 26.6535 108.586 26.1862 108.586 25.6815C109.86 25.4995 111.122 25.3194 112.452 25.1303C112.57 25.5602 112.686 25.9775 112.797 26.386C113.09 26.1648 113.392 25.9026 113.726 25.6922C115.004 24.8824 116.381 24.7433 117.787 25.2534C118.97 25.6815 119.589 26.616 119.794 27.8289C119.852 28.1642 119.873 28.5084 119.875 28.8491C119.882 31.4352 119.878 34.0214 119.878 36.6075C119.882 36.7627 119.882 36.9232 119.882 37.1051Z" fill="#2A1F41"/>
<path fill-rule="evenodd" clip-rule="evenodd" d="M39.3864 37.1089C39.8601 37.2052 40.2801 37.2908 40.7341 37.3818C40.7055 37.8616 40.6787 38.3164 40.6501 38.7979C38.6733 38.7979 36.734 38.7979 34.725 38.7979C34.75 38.3324 34.7733 37.8812 34.8001 37.3871C35.2273 37.2944 35.6437 37.2034 36.0566 37.1143C36.1495 36.795 36.1746 27.7934 36.0745 27.2922C35.5937 27.2387 35.0986 27.1834 34.582 27.1246C34.582 26.6519 34.582 26.1953 34.582 25.6817C35.8493 25.4997 37.1219 25.3178 38.457 25.127C38.5732 25.555 38.6858 25.9617 38.8091 26.4129C38.9182 26.3166 39.0397 26.2042 39.1666 26.0972C40.4052 25.0539 41.828 24.7399 43.3847 25.1181C44.736 25.4462 45.5099 26.3648 45.7834 27.706C45.8531 28.052 45.8781 28.4141 45.8799 28.7672C45.887 31.3676 45.8835 33.9663 45.8835 36.5667C45.8835 36.7415 45.8835 36.9163 45.8835 37.1036C46.3625 37.1981 46.795 37.2819 47.2776 37.3764C47.2669 37.6137 47.2508 37.8437 47.2454 38.0756C47.2401 38.3092 47.2436 38.5447 47.2436 38.7997C45.6994 38.7997 44.2177 38.7997 42.6662 38.7997C42.6662 38.6267 42.6662 38.4555 42.6662 38.2843C42.6662 35.4324 42.668 32.5787 42.6627 29.7268C42.6627 29.3861 42.6341 29.0437 42.5804 28.7066C42.4571 27.9165 41.9906 27.4492 41.1917 27.3725C40.6126 27.3172 40.0281 27.3315 39.6045 27.8523C39.4365 28.0574 39.3561 28.266 39.3578 28.5389C39.3686 30.7077 39.3632 32.8765 39.3632 35.0471C39.3632 35.5822 39.3614 36.1172 39.3632 36.6523C39.365 36.7968 39.3775 36.943 39.3864 37.1089Z" fill="#2A1F41"/>
<path fill-rule="evenodd" clip-rule="evenodd" d="M140.81 26.9311C140.315 26.8812 139.829 26.8348 139.307 26.7831C139.307 26.3693 139.307 25.9626 139.307 25.5096C140.772 25.342 142.245 25.1743 143.73 25.0067C143.911 25.5578 144.104 26.059 144.102 26.6261C144.09 29.94 144.095 33.2538 144.095 36.5677C144.095 36.7424 144.095 36.9172 144.095 37.1045C144.57 37.2026 145.001 37.29 145.47 37.3863C145.419 37.8661 145.373 38.3173 145.325 38.7971C144.056 38.7971 142.812 38.7971 141.516 38.7971C141.407 38.4636 141.289 38.1051 141.157 37.702C141.032 37.7983 140.939 37.8625 140.856 37.9374C139.301 39.3554 137.214 39.2109 135.888 38.5688C134.86 38.0712 134.302 37.2044 134.109 36.1022C134.045 35.7383 134.018 35.3638 134.018 34.9946C134.011 32.4976 134.014 30.0024 134.014 27.5054C134.014 27.3306 134.014 27.1541 134.014 26.9454C133.492 26.8883 133.012 26.8366 132.506 26.7831C132.506 26.3675 132.506 25.9733 132.506 25.515C133.952 25.3473 135.407 25.1797 136.91 25.0049C137.031 25.5061 137.246 25.9555 137.246 26.4745C137.239 29.0892 137.239 31.7057 137.246 34.3204C137.246 34.6753 137.269 35.032 137.316 35.3852C137.443 36.3447 138.061 36.9137 139.024 36.9297C139.36 36.9351 139.705 36.8691 140.034 36.7888C140.395 36.7014 140.853 36.0825 140.853 35.7205C140.855 32.8382 140.853 29.9542 140.851 27.072C140.853 27.0417 140.837 27.0149 140.81 26.9311Z" fill="#2A1F41"/>
<path fill-rule="evenodd" clip-rule="evenodd" d="M68.2957 32.8393C68.2939 33.9505 68.4673 34.9332 69.0607 35.8C69.5915 36.5741 70.3226 36.979 71.2806 36.995C72.1761 37.0093 73.0233 36.8327 73.8419 36.4867C73.9491 36.4421 74.0599 36.4011 74.2101 36.3422C74.3906 36.7542 74.5675 37.1573 74.7659 37.6121C74.5247 37.7762 74.2941 37.9617 74.0403 38.099C72.3905 38.9872 70.655 39.2958 68.8301 38.7625C67.3002 38.3166 66.2975 37.2608 65.6379 35.8571C64.9105 34.309 64.7478 32.6681 64.8872 30.9844C64.973 29.9571 65.1964 28.9601 65.6343 28.0202C66.3457 26.4934 67.4592 25.4286 69.1501 25.0737C70.7641 24.7348 72.2672 24.94 73.5076 26.1332C74.244 26.843 74.6516 27.7473 74.934 28.714C75.2235 29.7056 75.3254 30.7258 75.329 31.7496C75.3307 32.0849 75.1324 32.4184 75.0251 32.7591C72.7659 32.784 70.5531 32.8108 68.2957 32.8393ZM72.3584 31.0843C72.3226 30.6723 72.303 30.3316 72.2619 29.9963C72.1636 29.1991 72.0134 28.4125 71.6095 27.7027C71.1662 26.9233 70.4942 26.6807 69.6434 26.9536C69.3091 27.0624 69.0875 27.2497 68.9535 27.5796C68.5084 28.6783 68.2868 29.8198 68.2332 30.9987C68.2296 31.0807 68.2618 31.1628 68.2832 31.2734C69.6327 31.2109 70.9625 31.1485 72.3584 31.0843Z" fill="#2A1F41"/>
<path fill-rule="evenodd" clip-rule="evenodd" d="M131.94 32.7568C129.654 32.7836 127.454 32.8103 125.218 32.8389C125.166 33.3222 125.243 33.7699 125.329 34.2158C125.461 34.8953 125.712 35.5213 126.166 36.0582C126.675 36.661 127.322 36.966 128.11 36.9928C128.972 37.0231 129.797 36.875 130.595 36.5487C130.757 36.4809 130.923 36.422 131.124 36.3453C131.304 36.7645 131.478 37.1676 131.678 37.6331C131.604 37.6812 131.529 37.7276 131.458 37.7793C130.028 38.7745 128.425 39.1634 126.714 38.9761C124.605 38.7442 123.195 37.5064 122.432 35.5909C121.443 33.11 121.486 30.5916 122.503 28.1249C123.157 26.5411 124.31 25.4478 126.037 25.0786C127.39 24.7897 128.7 24.8753 129.885 25.6922C130.727 26.2718 131.24 27.094 131.603 28.0215C132.069 29.2129 132.248 30.4614 132.219 31.7313C132.212 32.0666 132.041 32.4037 131.94 32.7568ZM129.258 31.0856C129.217 30.1493 129.111 29.2896 128.847 28.4531C128.711 28.025 128.5 27.6451 128.223 27.2867C127.694 26.6053 126.055 26.7427 125.803 27.6773C125.599 28.4335 125.342 29.1737 125.238 29.9549C125.181 30.3758 125.104 30.7967 125.186 31.2747C126.536 31.2105 127.864 31.1498 129.258 31.0856Z" fill="#2A1F41"/>
<path fill-rule="evenodd" clip-rule="evenodd" d="M108.02 32.7567C105.751 32.7852 103.539 32.812 101.292 32.8387C101.305 34.0462 101.496 35.1377 102.259 36.0545C102.751 36.643 103.383 36.957 104.159 36.9873C105.035 37.0229 105.877 36.8785 106.688 36.5467C106.851 36.4807 107.015 36.4165 107.212 36.3381C107.392 36.7536 107.566 37.1567 107.759 37.6008C107.603 37.715 107.458 37.838 107.299 37.9361C105.755 38.901 104.071 39.2328 102.295 38.8885C100.634 38.5675 99.4761 37.533 98.729 36.0456C97.9693 34.5331 97.7531 32.9136 97.8693 31.2389C97.9461 30.1206 98.1606 29.0326 98.636 28.0089C99.1955 26.8103 100.009 25.8436 101.267 25.3496C102.742 24.7699 104.227 24.7128 105.66 25.4869C106.602 25.9952 107.194 26.8281 107.607 27.793C108.143 29.0433 108.322 30.3667 108.32 31.7097C108.322 32.0629 108.123 32.4125 108.02 32.7567ZM105.355 31.0819C105.314 30.6342 105.292 30.2383 105.24 29.8477C105.142 29.1111 104.995 28.3852 104.622 27.7288C104.137 26.8781 103.408 26.6337 102.502 27.0011C102.273 27.0939 102.111 27.2348 102.005 27.4702C101.608 28.3442 101.412 29.268 101.299 30.2115C101.26 30.5433 101.24 30.8786 101.204 31.2763C102.616 31.2103 103.957 31.1461 105.355 31.0819Z" fill="#2A1F41"/>
<path fill-rule="evenodd" clip-rule="evenodd" d="M59.4383 25.1279C59.542 25.5399 59.6367 25.9216 59.7404 26.3354C59.8976 26.2409 60.0567 26.141 60.2176 26.0464C61.1595 25.4971 62.1855 25.2349 63.265 25.1172C63.7869 25.0601 64.1569 25.2278 64.4572 25.6648C64.3249 26.849 64.1891 28.0547 64.0497 29.3014C63.3008 29.2711 62.593 29.2426 61.8602 29.2123C61.7779 28.547 61.7011 27.9192 61.6206 27.2646C61.088 27.3074 60.643 27.4697 60.2247 27.7497C60.2247 30.8692 60.2247 33.9708 60.2247 37.1134C60.6644 37.2133 61.1077 37.3132 61.5813 37.4202C61.5563 37.8768 61.5313 38.3137 61.5045 38.7864C59.5455 38.7864 57.6063 38.7864 55.6527 38.7864C55.6527 38.3369 55.6527 37.8982 55.6527 37.4291C56.0709 37.3221 56.4695 37.2204 56.8752 37.117C56.8752 33.8388 56.8752 30.5749 56.8752 27.286C56.3998 27.2307 55.9476 27.179 55.4668 27.1237C55.4668 26.6422 55.4668 26.1766 55.4668 25.6755C56.7894 25.4953 58.0942 25.3152 59.4383 25.1279Z" fill="#2A1F41"/>
<path fill-rule="evenodd" clip-rule="evenodd" d="M146.294 38.8047C146.315 38.325 146.335 37.8844 146.357 37.4243C146.764 37.3244 147.152 37.2281 147.57 37.1246C147.57 33.8679 147.57 30.6075 147.57 27.2955C147.118 27.2402 146.653 27.1849 146.137 27.1225C146.137 26.8763 146.137 26.6427 146.137 26.4108C146.137 26.1772 146.137 25.9417 146.137 25.6796C147.488 25.4941 148.793 25.3139 150.124 25.1302C150.232 25.5458 150.328 25.9257 150.417 26.277C150.98 26.0184 151.526 25.7099 152.11 25.5173C152.684 25.3264 153.295 25.2479 153.89 25.1302C154.407 25.0268 154.827 25.1802 155.143 25.6724C155.013 26.8317 154.879 28.0374 154.737 29.2984C154.005 29.2716 153.297 29.2449 152.552 29.2163C152.468 28.5493 152.387 27.909 152.296 27.1974C151.812 27.3668 151.368 27.5202 150.918 27.6771C150.918 30.8429 150.918 33.957 150.918 37.1211C151.349 37.2192 151.792 37.319 152.273 37.4278C152.244 37.8862 152.216 38.3374 152.185 38.8047C150.212 38.8047 148.282 38.8047 146.294 38.8047Z" fill="#2A1F41"/>
<path fill-rule="evenodd" clip-rule="evenodd" d="M94.6132 27.1869C94.0948 27.3777 93.6569 27.5383 93.219 27.6988C93.219 30.8789 93.219 33.9929 93.219 37.1213C93.6837 37.2247 94.1288 37.3246 94.6024 37.4299C94.5631 37.8971 94.5274 38.3359 94.488 38.7996C92.5345 38.7996 90.6077 38.7996 88.6488 38.7996C88.6488 38.3573 88.6488 37.9221 88.6488 37.437C89.067 37.3318 89.4656 37.2301 89.8892 37.1231C89.8892 33.8574 89.8892 30.597 89.8892 27.2921C89.4156 27.2368 88.9508 27.1833 88.4629 27.128C88.4629 26.6554 88.4629 26.2006 88.4629 25.6834C89.7587 25.5014 91.0635 25.3195 92.4219 25.1287C92.5363 25.5246 92.6471 25.9152 92.7579 26.3022C93.1422 26.1025 93.5175 25.892 93.9054 25.7083C94.6257 25.3659 95.4014 25.2357 96.186 25.1269C96.7062 25.0555 97.119 25.1822 97.4586 25.6566C97.3317 26.8177 97.1995 28.0234 97.0583 29.2986C96.3272 29.2719 95.6087 29.2451 94.8634 29.2184C94.7812 28.5513 94.7043 27.9235 94.6132 27.1869Z" fill="#2A1F41"/>
<path fill-rule="evenodd" clip-rule="evenodd" d="M51.9592 22.5283C51.9592 23.4629 51.9592 24.3493 51.9592 25.2928C52.7724 25.2928 53.5499 25.2928 54.3936 25.2928C54.3399 25.9082 54.2917 26.4575 54.2416 27.0282C53.4945 27.1138 52.7885 27.1941 52.0539 27.2779C52.0378 27.4046 52.011 27.5169 52.011 27.6311C52.0128 30.2886 52.0164 32.9479 52.02 35.6053C52.02 35.7837 52.0217 35.9621 52.045 36.1386C52.1218 36.6951 52.5061 37.0429 53.0709 37.0607C53.5142 37.0732 53.9592 37.0625 54.4561 37.0625C54.5062 37.5566 54.5544 38.0221 54.6009 38.4929C54.2524 38.7284 53.8717 38.7908 53.4963 38.8621C52.6723 39.0191 51.8466 39.0779 51.0137 38.9335C49.7429 38.7141 48.9135 37.8562 48.7652 36.581C48.7348 36.317 48.733 36.0477 48.733 35.7801C48.7312 33.1066 48.7312 30.4348 48.7294 27.7613C48.7294 27.6025 48.708 27.4438 48.6973 27.2779C48.1789 27.1923 47.6981 27.1121 47.1602 27.0229C47.1852 26.47 47.2102 25.9278 47.237 25.3321C47.809 25.3035 48.3666 25.2768 48.969 25.2482C49.2245 24.385 49.4801 23.5235 49.7411 22.6443C50.4703 22.605 51.1799 22.5693 51.9592 22.5283Z" fill="#2A1F41"/>
<path d="M155.501 37.9628C155.501 38.5032 154.999 38.9348 154.363 38.9348C153.726 38.9348 153.217 38.5014 153.217 37.9628C153.217 37.4295 153.724 36.9961 154.363 36.9961C155.001 36.9961 155.501 37.4277 155.501 37.9628ZM153.558 37.9681C153.558 38.373 153.9 38.694 154.363 38.694C154.826 38.694 155.167 38.373 155.167 37.9628C155.167 37.5633 154.826 37.2369 154.355 37.2369C153.9 37.2369 153.558 37.5633 153.558 37.9681ZM154.221 38.4229H153.907V37.5294C153.978 37.5187 154.145 37.5008 154.357 37.5008C154.59 37.5008 154.691 37.5294 154.768 37.5686C154.833 37.6078 154.877 37.6756 154.877 37.7648C154.877 37.854 154.781 37.9342 154.64 37.9663V37.977C154.756 38.0109 154.82 38.0787 154.852 38.2071C154.885 38.3373 154.904 38.3873 154.924 38.4211H154.57C154.538 38.3873 154.518 38.3088 154.498 38.2303C154.479 38.1411 154.427 38.0948 154.325 38.0948H154.221V38.4229ZM154.234 37.911H154.323C154.439 37.911 154.516 37.8718 154.516 37.804C154.516 37.7309 154.445 37.6917 154.336 37.6917C154.296 37.6917 154.259 37.697 154.232 37.697V37.911H154.234Z" fill="#2A1F41"/>
</g>
</svg>
