<svg width="175" height="64" viewBox="0 0 155 64" fill="none" xmlns="http://www.w3.org/2000/svg">
<g opacity="1">
<mask id="mask0_3913_3969" style="mask-type:luminance" maskUnits="userSpaceOnUse" x="31" y="18" width="93" height="29">
<path d="M124 18H31V46.8932H124V18Z" fill="white"/>
</mask>
<g mask="url(#mask0_3913_3969)">
<path fill-rule="evenodd" clip-rule="evenodd" d="M38.2089 46.8932H40.3722V35.3359H38.2089V46.8932ZM46.1391 46.7198H48.0768V39.4279L56.2328 46.8932V35.5093H54.3006V42.6766L46.1391 35.3359V46.7198ZM60.6562 43.9208C61.7108 44.7425 62.9767 45.2174 64.3337 45.2174C65.6556 45.2174 66.5829 44.7623 66.5829 43.7574C66.5829 42.8816 65.9915 42.5385 64.9558 42.1547L63.2791 41.5723C61.7333 41.0234 60.5577 40.2216 60.5577 38.3787C60.5577 36.4077 62.3374 35.3359 64.4656 35.3359C65.7694 35.3359 66.9576 35.6637 67.8858 36.2443V38.1991C66.9206 37.4858 65.8642 36.9946 64.5071 36.9946C63.3387 36.9946 62.4656 37.4307 62.4656 38.3399C62.4656 39.1616 63.0137 39.4902 63.9789 39.8207L65.847 40.4762C67.6574 41.1128 68.488 42.0996 68.488 43.7231C68.488 45.7655 66.6912 46.8932 64.3337 46.8932C62.7843 46.8932 61.467 46.4598 60.6562 45.9126V43.9208ZM73.5353 46.8932H75.6978V35.3359H73.5353V46.8932ZM85.8429 45.1443C88.2808 45.1443 89.5837 43.5804 89.5837 41.1119C89.5837 38.6252 88.2799 37.0668 85.8429 37.0668H83.4321V45.1443H85.8429ZM81.4638 35.3359H85.9151C89.3417 35.3359 91.5574 37.5932 91.5574 41.1119C91.5574 44.6332 89.3417 46.8932 85.9151 46.8932H81.4638V35.3359ZM102.373 35.3359V37.0668H97.1384V39.8478H101.833V41.5588H97.1375V45.1443H102.373V46.8932H95.1628V35.3359H102.373ZM110.049 40.5692H112.195C113.466 40.5692 114.182 39.8722 114.182 38.8004C114.182 37.7286 113.466 37.0307 112.195 37.0307H110.049V40.5692ZM110.049 42.2035V46.8932H108.139V35.3359H112.231C114.565 35.3359 116.074 36.5377 116.074 38.8004C116.074 40.7353 115.236 41.8468 113.451 42.1321L117.512 46.8932H115.339L111.408 42.2044H110.05L110.049 42.2035ZM37.4531 23.9502C38.2991 23.6405 38.9583 22.7114 38.9583 21.4338C38.9583 19.3047 37.4531 18.2013 35.045 18.2013H31V30.0864H35.4207C37.8287 30.0864 39.3339 28.9054 39.3339 26.6797C39.3339 25.421 38.5438 24.3177 37.4531 23.9502ZM32.8997 23.1954V19.944H35.027C36.3633 19.944 37.0775 20.4279 37.0775 21.5503C37.0775 22.6726 36.3624 23.1954 35.027 23.1954H32.8997ZM32.8997 24.8603H35.3827C36.701 24.8603 37.4152 25.5177 37.4152 26.602C37.4152 27.6666 36.7001 28.3447 35.3836 28.3447H32.9006V24.8594L32.8997 24.8603ZM48.1599 30.2796C50.9255 30.2796 52.7882 28.6146 52.7882 25.3633V18.2013H50.8316V25.1303C50.8316 27.4147 49.8907 28.4801 48.1599 28.4801C46.429 28.4801 45.489 27.4147 45.489 25.1303V18.2013H43.5324V25.3434C43.5324 28.6146 45.4132 30.2796 48.1599 30.2796ZM57.3948 29.234C58.2039 29.8155 59.5212 30.2796 61.0634 30.2796C63.4155 30.2796 65.2023 29.0787 65.2023 26.9117C65.2023 25.189 64.3753 24.1434 62.5685 23.4662L60.7067 22.7692C59.7469 22.4216 59.2016 22.073 59.2016 21.2017C59.2016 20.2338 60.0666 19.7697 61.2331 19.7697C62.5875 19.7697 63.6412 20.2916 64.601 21.0473V18.9751C63.6791 18.3567 62.4936 18.0081 61.1952 18.0081C59.0698 18.0081 57.3009 19.1503 57.3009 21.2406C57.3009 23.1954 58.4675 24.0468 60.0097 24.6274L61.6846 25.2468C62.7193 25.6531 63.3026 26.0215 63.3026 26.9506C63.3026 28.0151 62.3807 28.4991 61.0634 28.4991C59.709 28.4991 58.4485 27.9952 57.3948 27.1248V29.234ZM72.1936 18.2013H70.2379V30.0855H72.1936V18.2013ZM77.7754 30.071H79.6607V22.3394L87.5955 30.2552V18.1833H85.7156V25.7831L77.7754 18V30.071ZM99.8218 18.2041V19.9837H94.742V22.8441H99.2972V24.6039H94.742V28.2905H99.8218V30.0891H92.8242V18.2041H99.8218ZM104.377 29.2259C105.186 29.8074 106.502 30.2715 108.046 30.2715C110.397 30.2715 112.184 29.0715 112.184 26.9036C112.184 25.1809 111.357 24.1362 109.551 23.4581L107.688 22.762C106.728 22.4134 106.183 22.0649 106.183 21.1936C106.183 20.2257 107.048 19.7616 108.214 19.7616C109.569 19.7616 110.622 20.2844 111.582 21.0392V18.9679C110.66 18.3485 109.475 18 108.176 18C106.051 18 104.282 19.1422 104.282 21.2324C104.282 23.1872 105.449 24.0387 106.991 24.6193L108.666 25.2387C109.701 25.645 110.284 26.0134 110.284 26.9424C110.284 28.007 109.363 28.4909 108.045 28.4909C106.69 28.4909 105.43 27.988 104.377 27.1167V29.2259ZM116.193 29.2259C117.002 29.8074 118.319 30.2715 119.861 30.2715C122.213 30.2715 124 29.0715 124 26.9036C124 25.1809 123.172 24.1362 121.366 23.4581L119.503 22.762C118.545 22.4134 117.998 22.0649 117.998 21.1936C117.998 20.2257 118.864 19.7616 120.03 19.7616C121.384 19.7616 122.439 20.2844 123.398 21.0392V18.9679C122.477 18.3485 121.291 18 119.993 18C117.867 18 116.099 19.1422 116.099 21.2324C116.099 23.1872 117.265 24.0387 118.807 24.6193L120.482 25.2387C121.517 25.645 122.1 26.0134 122.1 26.9424C122.1 28.007 121.178 28.4909 119.861 28.4909C118.507 28.4909 117.246 27.988 116.193 27.1167V29.2259Z" fill="black"/>
</g>
</g>
</svg>
