<svg width="177" height="64" viewBox="0 0 177 64" fill="none" xmlns="http://www.w3.org/2000/svg">
<g opacity="1">
<mask id="mask0_3913_3925" style="mask-type:luminance" maskUnits="userSpaceOnUse" x="21" y="20" width="135" height="19">
<path d="M155.313 20H21.7656V38.7612H155.313V20Z" fill="white"/>
</mask>
<g mask="url(#mask0_3913_3925)">
<path d="M155.308 32.1468C155.308 28.278 152.67 26.0235 149.192 26.0235C148.355 25.9932 147.521 26.1366 146.742 26.4447C145.963 26.7527 145.256 27.2187 144.666 27.8133C144.076 28.4079 143.616 29.1183 143.314 29.8996C143.012 30.6809 142.875 31.5163 142.912 32.3531C142.876 33.193 143.013 34.0315 143.314 34.8165C143.615 35.6015 144.074 36.3162 144.663 36.9163C145.252 37.5165 145.958 37.9892 146.737 38.3053C147.516 38.6214 148.351 38.774 149.192 38.7538C150.473 38.7711 151.735 38.4523 152.855 37.8292C153.429 37.5011 153.933 37.0616 154.336 36.5365C154.739 36.0115 155.033 35.4113 155.201 34.7711H152.648C152.022 35.8948 150.906 36.4424 149.327 36.4424C147.193 36.4424 145.608 34.7711 145.608 33.1781H155.28C155.308 32.7229 155.308 32.4384 155.308 32.1468ZM145.579 30.9307C145.752 30.1429 146.202 29.4431 146.846 28.9579C147.491 28.4726 148.287 28.234 149.092 28.2851C150.92 28.2851 152.421 29.3803 152.648 30.9307H145.615H145.579Z" fill="black"/>
<path d="M31.4557 33.955C31.0993 34.7145 30.4935 35.3291 29.7391 35.6962C28.9847 36.0633 28.1273 36.1609 27.3097 35.9726C26.4921 35.7843 25.7637 35.3215 25.2459 34.6614C24.7281 34.0012 24.4521 33.1836 24.4639 32.3447C24.4758 31.5058 24.7747 30.6962 25.311 30.051C25.8472 29.4057 26.5884 28.9637 27.4109 28.7985C28.2335 28.6334 29.0879 28.7551 29.8316 29.1434C30.5754 29.5317 31.1636 30.1631 31.4983 30.9324H34.3431C33.9734 29.4109 33.0588 28.0777 31.7724 27.185C30.486 26.2924 28.917 25.9022 27.3623 26.0884C25.8076 26.2746 24.3751 27.0241 23.3359 28.1953C22.2966 29.3664 21.7227 30.8779 21.7227 32.4437C21.7227 34.0095 22.2966 35.5209 23.3359 36.6921C24.3751 37.8632 25.8076 38.6128 27.3623 38.799C28.917 38.9851 30.486 38.595 31.7724 37.7023C33.0588 36.8097 33.9734 35.4765 34.3431 33.955H31.4983H31.4557Z" fill="black"/>
<path d="M44.4824 26.5654C43.6821 26.1902 42.8058 26.0052 41.9221 26.0249C41.0059 26.0346 40.1119 26.3087 39.3476 26.8143V26.4587H36.7305V38.3284H39.3619V32.6389C39.3219 31.8647 39.3768 31.0884 39.5254 30.3275V30.2706C39.6027 30.0178 39.7291 29.7826 39.8976 29.5788C40.066 29.375 40.2731 29.2065 40.5069 29.083C40.9318 28.812 41.4253 28.6681 41.9293 28.6681C42.4332 28.6681 42.9267 28.812 43.3516 29.083L44.4824 26.5654Z" fill="black"/>
<path d="M54.4158 26.457V32.1465C54.4557 32.9208 54.4008 33.697 54.2522 34.4579V34.5148C54.098 35.0204 53.7504 35.4447 53.285 35.6954C52.86 35.9663 52.3665 36.1103 51.8626 36.1103C51.3586 36.1103 50.8651 35.9663 50.4402 35.6954C49.9748 35.4447 49.6272 35.0204 49.473 34.5148V34.4579C49.3244 33.697 49.2694 32.9208 49.3094 32.1465V26.457H46.6851V32.9288C46.6237 33.9891 46.7761 35.0508 47.1332 36.051C47.5402 37.0123 48.3054 37.7775 49.2667 38.1845C50.0671 38.5597 50.9433 38.7447 51.827 38.725C52.7433 38.7153 53.6373 38.4412 54.4015 37.9356V38.3268H56.9974V26.457H54.4158Z" fill="black"/>
<path d="M62.864 38.328V32.6385C62.8281 31.8613 62.8878 31.0827 63.0418 30.32V30.2631C63.196 29.7575 63.5436 29.3332 64.009 29.0826C64.4339 28.8116 64.9274 28.6677 65.4314 28.6677C65.9353 28.6677 66.4288 28.8116 66.8537 29.0826C67.3191 29.3332 67.6667 29.7575 67.821 30.2631V30.32C67.9654 31.0838 68.0155 31.8625 67.9703 32.6385V38.328H70.5804V31.8562C70.6486 30.7974 70.5035 29.7357 70.1536 28.7341C69.7466 27.7727 68.9814 27.0075 68.0201 26.6005C67.2197 26.2254 66.3435 26.0404 65.4598 26.06C64.5435 26.0697 63.6495 26.3439 62.8853 26.8494V26.4938H60.2539V38.328H62.864Z" fill="black"/>
<path d="M82.6939 33.955C82.3376 34.7145 81.7318 35.3291 80.9774 35.6962C80.223 36.0633 79.3655 36.1609 78.5479 35.9726C77.7304 35.7843 77.002 35.3215 76.4842 34.6614C75.9663 34.0012 75.6904 33.1836 75.7022 32.3447C75.714 31.5058 76.013 30.6962 76.5492 30.051C77.0855 29.4057 77.8266 28.9637 78.6492 28.7985C79.4718 28.6334 80.3261 28.7551 81.0699 29.1434C81.8136 29.5317 82.4019 30.1631 82.7366 30.9324H85.5814C85.2117 29.4109 84.2971 28.0777 83.0107 27.185C81.7243 26.2924 80.1553 25.9022 78.6006 26.0884C77.0459 26.2746 75.6134 27.0241 74.5741 28.1953C73.5349 29.3664 72.9609 30.8779 72.9609 32.4437C72.9609 34.0095 73.5349 35.5209 74.5741 36.6921C75.6134 37.8632 77.0459 38.6128 78.6006 38.799C80.1553 38.9851 81.7243 38.595 83.0107 37.7023C84.2971 36.8097 85.2117 35.4765 85.5814 33.955H82.7366H82.6939Z" fill="black"/>
<path d="M90.5944 38.3273V32.6378C90.5545 31.8636 90.6094 31.0874 90.758 30.3265V30.2696C90.8352 30.0167 90.9617 29.7815 91.1301 29.5777C91.2986 29.3739 91.5056 29.2054 91.7394 29.0819C92.1644 28.8109 92.6579 28.667 93.1618 28.667C93.6658 28.667 94.1593 28.8109 94.5842 29.0819C95.0496 29.3326 95.3972 29.7568 95.5514 30.2624V30.3193C95.7 31.0802 95.755 31.8565 95.715 32.6307V38.3202H98.3251V31.8484C98.3865 30.7882 98.2341 29.7264 97.877 28.7263C97.47 27.7649 96.7048 26.9997 95.7434 26.5927C94.9431 26.2176 94.0668 26.0326 93.1832 26.0522C92.2669 26.0619 91.3729 26.3361 90.6087 26.8416V20H87.9844V38.3273H90.5944Z" fill="black"/>
<path d="M107.737 26.0238H107.268C106.145 26.1058 105.065 26.4863 104.139 27.1261V20H101.543V38.3273H104.153V37.6588C104.979 38.24 105.931 38.6174 106.931 38.7602C107.931 38.9029 108.951 38.807 109.907 38.4802C110.862 38.1534 111.727 37.605 112.43 36.8799C113.134 36.1548 113.655 35.2735 113.953 34.3082C114.25 33.3428 114.315 32.3208 114.142 31.3256C113.968 30.3305 113.562 29.3905 112.956 28.5825C112.35 27.7745 111.561 27.1214 110.654 26.6767C109.747 26.232 108.747 26.0082 107.737 26.0238ZM111.407 32.8796V32.9934C111.383 33.1447 111.35 33.2944 111.308 33.4415C111.259 33.5994 111.2 33.7539 111.13 33.9037V33.9606C110.885 34.4704 110.526 34.917 110.081 35.266C109.635 35.615 109.116 35.857 108.562 35.9733L108.214 36.0302H108.136C108.003 36.0375 107.87 36.0375 107.737 36.0302C107.571 36.0296 107.405 36.0178 107.24 35.9946H107.126C106.804 35.942 106.491 35.8464 106.194 35.7102H106.123C105.824 35.5634 105.547 35.3768 105.298 35.1554C105.048 34.9278 104.83 34.667 104.651 34.3802C104.562 34.2342 104.484 34.0821 104.416 33.9251C104.207 33.4475 104.102 32.9306 104.11 32.4092C104.117 31.8878 104.236 31.374 104.459 30.9025C104.729 30.3315 105.142 29.8398 105.658 29.4748C106.174 29.1098 106.775 28.8838 107.403 28.8187C107.529 28.8122 107.655 28.8122 107.78 28.8187C108.728 28.8312 109.635 29.2096 110.311 29.8749C110.987 30.5402 111.38 31.4409 111.407 32.3889C111.418 32.5523 111.418 32.7162 111.407 32.8796Z" fill="black"/>
<path d="M140.805 30.0052V29.9483C140.805 28.0138 139.318 26.0438 136.004 26.0083C132.69 25.9727 131.254 27.9569 131.211 29.8629V30.0052C131.282 31.1217 131.922 32.5441 134.397 33.1273L136.602 33.6251C137.171 33.7531 138.138 34.0732 138.216 34.7986C138.216 35.8013 136.929 36.3276 136.004 36.3276C134.938 36.3276 133.793 35.7373 133.793 34.7915V34.7346H131.211V34.7701C131.211 36.7046 132.697 38.6746 136.011 38.7101C139.326 38.7457 140.812 36.7117 140.812 34.7701V34.7346C140.755 33.6038 140.143 32.1601 137.626 31.5769L135.421 31.0791C134.938 30.9724 133.807 30.6452 133.807 29.9269C133.807 28.8033 134.952 28.405 136.019 28.405C137.085 28.405 138.23 28.9953 138.23 29.9412V30.0052H140.812H140.805Z" fill="black"/>
<path d="M116.242 32.3889C116.253 33.5429 116.575 34.6726 117.175 35.6584C117.776 36.6441 118.631 37.4493 119.652 37.9886C120.672 38.5279 121.819 38.7814 122.972 38.722C124.124 38.6627 125.239 38.2929 126.199 37.6517V38.3273H128.809V26.4576H126.213V27.1687C125.287 26.529 124.206 26.1484 123.084 26.0664H122.614C120.935 26.0737 119.326 26.7407 118.134 27.9234C116.942 29.1061 116.263 30.7098 116.242 32.3889ZM118.938 32.3889C118.939 31.4162 119.327 30.4839 120.015 29.7961C120.702 29.1083 121.635 28.721 122.607 28.7191C122.733 28.7126 122.859 28.7126 122.984 28.7191C123.613 28.7842 124.214 29.0102 124.73 29.3752C125.245 29.7402 125.658 30.2319 125.929 30.8029C126.151 31.2744 126.27 31.7882 126.278 32.3096C126.285 32.831 126.181 33.3479 125.971 33.8255C125.904 33.9825 125.825 34.1346 125.737 34.2806C125.557 34.5674 125.339 34.8282 125.089 35.0558C124.841 35.2772 124.563 35.4638 124.264 35.6106H124.193C123.897 35.7468 123.584 35.8424 123.262 35.895H123.148C122.983 35.9182 122.817 35.93 122.65 35.9306C122.517 35.9379 122.384 35.9379 122.252 35.9306H122.202L121.853 35.8737C121.312 35.751 120.804 35.5076 120.37 35.1616C119.935 34.8155 119.584 34.3758 119.343 33.8753V33.8184C119.273 33.6685 119.214 33.514 119.165 33.3561C119.123 33.209 119.089 33.0593 119.066 32.908V32.7942C119.015 32.6617 118.972 32.5264 118.938 32.3889Z" fill="black"/>
</g>
</g>
</svg>
