<svg width="26" height="26" viewBox="0 0 26 26" fill="none" xmlns="http://www.w3.org/2000/svg">
<path d="M16.6855 22.75V15.2035H19.2129L19.591 12.2698H16.6855V10.3978C16.6855 9.5485 16.9217 8.96892 18.1393 8.96892H19.6928V6.34508C18.9408 6.26529 18.1849 6.22659 17.4287 6.22917C15.1894 6.22917 13.6565 7.59633 13.6565 10.1075V12.2698H11.1237V15.2035H13.6565V22.75H4.33333C4.04602 22.75 3.77047 22.6359 3.5673 22.4327C3.36414 22.2295 3.25 21.954 3.25 21.6667V4.33333C3.25 4.04602 3.36414 3.77047 3.5673 3.5673C3.77047 3.36414 4.04602 3.25 4.33333 3.25H21.6667C21.954 3.25 22.2295 3.36414 22.4327 3.5673C22.6359 3.77047 22.75 4.04602 22.75 4.33333V21.6667C22.75 21.954 22.6359 22.2295 22.4327 22.4327C22.2295 22.6359 21.954 22.75 21.6667 22.75H16.6855Z" fill="white"/>
</svg>
