<svg width="177" height="64" viewBox="0 0 177 64" fill="none" xmlns="http://www.w3.org/2000/svg">
<g opacity="1">
<mask id="mask0_3913_3941" style="mask-type:luminance" maskUnits="userSpaceOnUse" x="47" y="22" width="84" height="20">
<path d="M130.999 22H47V41.4879H130.999V22Z" fill="white"/>
</mask>
<g mask="url(#mask0_3913_3941)">
<path d="M62.4167 22C60.8091 22.0067 59.2099 22.8526 58.4117 24.537L58.043 25.3146V31.7392V38.1638L58.4117 38.9413C58.984 40.149 59.8697 40.9114 61.1973 41.3323C62.1488 41.634 63.6654 41.475 64.6328 40.9746C65.2603 40.65 66.1483 39.6836 66.4911 38.9523L66.8051 38.2806V31.7392V25.1978L66.4619 24.5042C65.638 22.8265 64.0243 21.9933 62.4167 22ZM62.4897 25.1832C62.5479 25.1835 62.606 25.1893 62.6613 25.2014C62.8467 25.2421 63.1559 25.457 63.3513 25.6796L63.7091 26.0848V31.71V37.3352L63.4463 37.7185C63.3017 37.9303 63.0302 38.157 62.8439 38.2222C62.6576 38.2875 62.4473 38.34 62.3766 38.339C62.095 38.3353 61.658 38.0239 61.4054 37.6491L61.1389 37.2549V31.7538C61.1393 26.5028 61.1476 26.2336 61.3653 25.8767C61.6227 25.4546 62.0828 25.1804 62.4897 25.1832Z" fill="black"/>
<path d="M99.249 41.2719C97.8948 40.7697 97.0052 39.9046 96.4925 38.5913C96.3122 38.1291 96.294 37.3486 96.2972 30.1808L96.3007 22.2798L97.8786 22.2473L99.4566 22.2148L99.4583 29.7817C99.4596 35.6291 99.4934 37.4149 99.6071 37.6405C99.688 37.8012 99.9401 38.0328 100.167 38.1552C100.678 38.4304 101.106 38.3458 101.574 37.8772L101.91 37.5417V29.8783V22.2148L103.489 22.2473L105.068 22.2798V30.1852C105.067 37.9104 105.062 38.1055 104.824 38.7413C104.48 39.6597 103.603 40.5818 102.629 41.0495C101.613 41.5371 100.213 41.6293 99.249 41.2719Z" fill="black"/>
<path d="M47 31.7428V22.2227H50.9137H54.8275V23.858V25.4934H52.5493H50.2712V27.7188V29.9443L51.7023 29.9244L53.1335 29.9045L53.166 31.4953L53.1985 33.0861H51.7348H50.2712V37.1745V41.2629H48.6356H47V31.7428Z" fill="black"/>
<path d="M71.1836 31.7428V22.2227H73.6124C76.2572 22.2227 76.9811 22.3322 77.9017 22.8716C78.5961 23.2785 79.3218 24.0965 79.691 24.8885C79.9897 25.5292 80.0016 25.636 80.0396 28.0282C80.0713 30.019 80.0422 30.6483 79.8912 31.2376C79.6732 32.0884 79.2759 32.8135 78.727 33.3623L78.3389 33.7504L79.3629 37.2568C79.9262 39.1854 80.4227 40.8757 80.4663 41.0131C80.5448 41.2604 80.5289 41.2629 78.8597 41.2629H77.1737L76.6831 39.3647C76.1941 37.4731 74.9457 32.7341 74.8398 32.3677C74.7997 32.2288 74.8813 32.1535 75.1315 32.0986C75.5949 31.9968 76.4323 31.2662 76.6313 30.7899C76.7468 30.5135 76.7913 29.8184 76.7913 28.2916V26.1763L76.4498 25.8348C76.1325 25.5175 76.0458 25.4934 75.2231 25.4934H74.3379V33.3781V41.2629H72.7608H71.1836V31.7428Z" fill="black"/>
<path d="M86.4859 41.1753C86.4852 41.1271 86.4721 37.5921 86.4567 33.3197L86.4287 25.5518L84.9975 25.519L83.5664 25.4862V23.8544V22.2227H88.0059H92.4453V23.858V25.4934H91.0434H89.6415V33.3781V41.2629H88.0643C87.1968 41.2629 86.4866 41.2235 86.4859 41.1753Z" fill="black"/>
<path d="M109.27 31.7416V22.2214H110.881H112.492L112.617 22.6595C112.685 22.9004 113.217 24.5956 113.799 26.4266C114.381 28.2577 115.023 30.2946 115.227 30.9531C115.43 31.6116 115.646 32.1504 115.707 32.1504C115.774 32.1504 115.814 30.2331 115.809 27.2151L115.802 22.2798L117.384 22.2473L118.966 22.2148V31.7383V41.2617H117.18H115.393L115.059 40.1812C114.875 39.5869 114.551 38.5563 114.338 37.8908C114.126 37.2254 113.652 35.7142 113.285 34.5325C112.918 33.3508 112.574 32.384 112.521 32.384C112.468 32.384 112.424 34.3815 112.424 36.8229V41.2617H110.847H109.27V31.7416Z" fill="black"/>
<path d="M123.172 31.7428V22.2227H127.086H130.999V23.858V25.4934H128.66H126.321L126.353 27.6836L126.385 29.8738H127.874H129.364V31.48V33.0861H127.845H126.326V35.5392V37.9922H128.663H130.999V39.6276V41.2629H127.086H123.172V31.7428Z" fill="black"/>
</g>
</g>
</svg>
