<svg width="512" height="512" viewBox="0 0 512 512" fill="none" xmlns="http://www.w3.org/2000/svg">
<g clip-path="url(#clip0_107_3431)">
<path d="M256 0.000976562C114.842 0.000976562 0.000976562 114.842 0.000976562 256C0.000976562 397.158 114.842 511.999 256 511.999C397.158 511.999 511.999 397.159 511.999 256C511.999 114.841 397.158 0.000976562 256 0.000976562ZM256 479.999C132.487 479.999 32.001 379.513 32.001 256C32.001 132.487 132.487 32.001 256 32.001C379.513 32.001 479.999 132.486 479.999 256C479.999 379.513 379.513 479.999 256 479.999ZM398 256C398 264.837 390.836 272 382 272H272V382C272 390.837 264.836 398 256 398C247.164 398 240 390.837 240 382V272H130C121.164 272 114 264.837 114 256C114 247.163 121.164 240 130 240H240V130C240 121.163 247.164 114 256 114C264.836 114 272 121.163 272 130V240H382C390.836 240 398 247.164 398 256Z" fill="#2257DA"/>
</g>
<defs>
<clipPath id="clip0_107_3431">
<rect width="512" height="512" fill="white"/>
</clipPath>
</defs>
</svg>
