<svg width="50" height="32" viewBox="0 0 50 32" fill="none" xmlns="http://www.w3.org/2000/svg">
<path d="M7 10V19C7 19.55 7.45 20 8 20H10V27.15C10 27.66 10.67 27.84 10.93 27.4L16.12 18.5C16.51 17.83 16.03 17 15.26 17H13L15.49 10.35C15.74 9.7 15.26 9 14.56 9H8C7.45 9 7 9.45 7 10Z" fill="#0AAC85"/>
<path d="M24.9 12.186C25.516 12.186 26.0573 12.312 26.524 12.564C26.9907 12.816 27.35 13.1753 27.602 13.642C27.8633 14.0993 27.994 14.6267 27.994 15.224C27.994 15.812 27.8587 16.33 27.588 16.778C27.3267 17.226 26.9533 17.576 26.468 17.828C25.992 18.0707 25.4413 18.192 24.816 18.192H22.828C22.7813 18.192 22.758 18.2153 22.758 18.262V21.832C22.758 21.8787 22.7393 21.9207 22.702 21.958C22.674 21.986 22.6367 22 22.59 22H20.952C20.9053 22 20.8633 21.986 20.826 21.958C20.798 21.9207 20.784 21.8787 20.784 21.832V12.354C20.784 12.3073 20.798 12.27 20.826 12.242C20.8633 12.2047 20.9053 12.186 20.952 12.186H24.9ZM24.606 16.61C25.0353 16.61 25.3807 16.4887 25.642 16.246C25.9033 15.994 26.034 15.6673 26.034 15.266C26.034 14.8553 25.9033 14.524 25.642 14.272C25.3807 14.02 25.0353 13.894 24.606 13.894H22.828C22.7813 13.894 22.758 13.9173 22.758 13.964V16.54C22.758 16.5867 22.7813 16.61 22.828 16.61H24.606ZM36.4035 22C36.3102 22 36.2448 21.958 36.2075 21.874L34.4575 17.996C34.4388 17.9587 34.4108 17.94 34.3735 17.94H33.0715C33.0248 17.94 33.0015 17.9633 33.0015 18.01V21.832C33.0015 21.8787 32.9828 21.9207 32.9455 21.958C32.9175 21.986 32.8802 22 32.8335 22H31.1955C31.1488 22 31.1068 21.986 31.0695 21.958C31.0415 21.9207 31.0275 21.8787 31.0275 21.832V12.368C31.0275 12.3213 31.0415 12.284 31.0695 12.256C31.1068 12.2187 31.1488 12.2 31.1955 12.2H35.1995C35.7968 12.2 36.3195 12.3213 36.7675 12.564C37.2248 12.8067 37.5748 13.152 37.8175 13.6C38.0695 14.048 38.1955 14.566 38.1955 15.154C38.1955 15.7887 38.0368 16.3347 37.7195 16.792C37.4022 17.24 36.9588 17.5573 36.3895 17.744C36.3428 17.7627 36.3288 17.7953 36.3475 17.842L38.2515 21.804C38.2702 21.8413 38.2795 21.8693 38.2795 21.888C38.2795 21.9627 38.2282 22 38.1255 22H36.4035ZM33.0715 13.894C33.0248 13.894 33.0015 13.9173 33.0015 13.964V16.358C33.0015 16.4047 33.0248 16.428 33.0715 16.428H34.9055C35.2975 16.428 35.6148 16.3113 35.8575 16.078C36.1095 15.8447 36.2355 15.5413 36.2355 15.168C36.2355 14.7947 36.1095 14.4913 35.8575 14.258C35.6148 14.0153 35.2975 13.894 34.9055 13.894H33.0715ZM44.9331 22.154C44.2051 22.154 43.5611 22.0047 43.0011 21.706C42.4505 21.4073 42.0211 20.992 41.7131 20.46C41.4051 19.9187 41.2511 19.298 41.2511 18.598V15.602C41.2511 14.9113 41.4051 14.3 41.7131 13.768C42.0211 13.236 42.4505 12.8253 43.0011 12.536C43.5611 12.2373 44.2051 12.088 44.9331 12.088C45.6705 12.088 46.3145 12.2373 46.8651 12.536C47.4251 12.8253 47.8591 13.236 48.1671 13.768C48.4751 14.3 48.6291 14.9113 48.6291 15.602V18.598C48.6291 19.298 48.4751 19.9187 48.1671 20.46C47.8591 21.0013 47.4251 21.4213 46.8651 21.72C46.3145 22.0093 45.6705 22.154 44.9331 22.154ZM44.9331 20.46C45.4465 20.46 45.8618 20.2967 46.1791 19.97C46.4965 19.6433 46.6551 19.2093 46.6551 18.668V15.588C46.6551 15.0467 46.4965 14.6127 46.1791 14.286C45.8711 13.95 45.4558 13.782 44.9331 13.782C44.4198 13.782 44.0045 13.95 43.6871 14.286C43.3791 14.6127 43.2251 15.0467 43.2251 15.588V18.668C43.2251 19.2093 43.3791 19.6433 43.6871 19.97C44.0045 20.2967 44.4198 20.46 44.9331 20.46Z" fill="#0AAC85"/>
</svg>
