<svg width="512" height="512" viewBox="0 0 512 512" fill="none" xmlns="http://www.w3.org/2000/svg">
<g clip-path="url(#clip0_107_3423)">
<path d="M256 512C397.385 512 512 397.385 512 256C512 114.615 397.385 0 256 0C114.615 0 0 114.615 0 256C0 397.385 114.615 512 256 512Z" fill="#283B6F"/>
<path d="M384.9 159.33C381.381 155.809 377.202 153.016 372.602 151.11C368.003 149.204 363.074 148.224 358.095 148.224C353.117 148.224 348.187 149.204 343.588 151.11C338.988 153.016 334.81 155.809 331.29 159.33L218.35 272.26L180.71 234.62C177.191 231.099 173.012 228.306 168.412 226.4C163.813 224.494 158.884 223.514 153.905 223.514C148.927 223.514 143.997 224.494 139.398 226.4C134.798 228.306 130.62 231.099 127.1 234.62C123.581 238.139 120.789 242.317 118.884 246.916C116.979 251.514 115.999 256.443 115.999 261.42C115.999 266.397 116.979 271.326 118.884 275.924C120.789 280.522 123.581 284.701 127.1 288.22L191.55 352.67C195.07 356.191 199.248 358.984 203.848 360.89C208.447 362.795 213.377 363.776 218.355 363.776C223.334 363.776 228.263 362.795 232.862 360.89C237.462 358.984 241.641 356.191 245.16 352.67L384.9 212.93C388.42 209.411 391.211 205.232 393.116 200.634C395.021 196.036 396.001 191.107 396.001 186.13C396.001 181.153 395.021 176.224 393.116 171.626C391.211 167.027 388.42 162.849 384.9 159.33Z" fill="white"/>
</g>
<defs>
<clipPath id="clip0_107_3423">
<rect width="512" height="512" fill="white"/>
</clipPath>
</defs>
</svg>
