<svg width="26" height="26" viewBox="0 0 26 26" fill="none" xmlns="http://www.w3.org/2000/svg">
<path d="M24.3318 6.49992C23.4976 6.87909 22.5985 7.12825 21.6668 7.24742C22.6201 6.67325 23.3568 5.76325 23.7035 4.66909C22.8043 5.21075 21.8076 5.58992 20.7568 5.80659C19.901 4.87492 18.6985 4.33325 17.3335 4.33325C14.7876 4.33325 12.7076 6.41325 12.7076 8.98075C12.7076 9.34908 12.751 9.70659 12.8268 10.0424C8.97012 9.84742 5.53596 7.99492 3.25012 5.18909C2.84929 5.87159 2.62179 6.67325 2.62179 7.51825C2.62179 9.13242 3.43429 10.5624 4.69096 11.3749C3.92179 11.3749 3.20679 11.1583 2.57846 10.8333V10.8658C2.57846 13.1191 4.18179 15.0041 6.30512 15.4266C5.62341 15.6131 4.90773 15.6391 4.21429 15.5024C4.50853 16.4259 5.08479 17.234 5.86206 17.8131C6.63933 18.3922 7.57852 18.7131 8.54762 18.7308C6.90489 20.0312 4.86862 20.7342 2.77346 20.7241C2.40512 20.7241 2.03679 20.7024 1.66846 20.6591C3.72679 21.9808 6.17512 22.7499 8.79679 22.7499C17.3335 22.7499 22.0243 15.6649 22.0243 9.52242C22.0243 9.31659 22.0243 9.12158 22.0135 8.91575C22.9235 8.26575 23.7035 7.44242 24.3318 6.49992Z" fill="white"/>
</svg>
