<svg width="178" height="28" viewBox="0 0 178 28" fill="none" xmlns="http://www.w3.org/2000/svg">
<path d="M13.785 21.1012V22.9081H0.61673V1.46863H2.53182V21.1012H13.785Z" fill="#D2ECF9"/>
<path d="M16.9425 2.0318C16.9425 1.32002 17.5439 0.756851 18.264 0.756851C18.9842 0.756851 19.6173 1.3122 19.6173 2.0318C19.6173 2.7514 19.0158 3.33803 18.264 3.33803C17.5123 3.33803 16.9425 2.77486 16.9425 2.0318ZM17.354 7.06119H19.1741V22.9002H17.354V7.06119Z" fill="#D2ECF9"/>
<path d="M22.941 20.7649L23.9777 19.4587C25.1726 20.7962 27.0244 21.6331 29.2244 21.6331C31.7409 21.6331 33.6243 20.5146 33.6243 18.7782C33.6243 16.854 31.5193 16.2909 29.1927 15.7355C26.4942 15.055 23.4712 14.2729 23.4712 11.1363C23.4712 8.2501 26.2093 6.69357 29.351 6.69357C31.7726 6.69357 33.7193 7.62436 35.0092 8.8993L33.9725 10.2368C32.9042 9.08702 31.274 8.34396 29.3826 8.34396C27.151 8.34396 25.3625 9.36861 25.3625 11.019C25.3625 12.9744 27.4992 13.5376 29.8891 14.0929C32.5639 14.7422 35.5157 15.493 35.5157 18.5983C35.5157 21.7035 32.7776 23.2913 29.2639 23.2913C26.5575 23.2913 24.3575 22.2354 22.9489 20.7727" fill="#D2ECF9"/>
<path d="M42.4717 8.71158V18.8408C42.4717 20.7962 43.5401 21.5393 45.3048 21.5393C46.2465 21.5393 46.9429 21.289 47.5997 20.9526V22.6578C46.8163 23.0645 46.0566 23.2835 44.9566 23.2835C42.1948 23.2835 40.6516 21.8834 40.6516 19.1223V8.7194H37.5416V7.07683H40.6516V2.66536H42.4717V7.07683H47.5918V8.7194H42.4717V8.71158Z" fill="#D2ECF9"/>
<path d="M50.8997 2.0318C50.8997 1.32002 51.4932 0.756851 52.2213 0.756851C52.9493 0.756851 53.5745 1.3122 53.5745 2.0318C53.5745 2.7514 52.9731 3.33803 52.2213 3.33803C51.4695 3.33803 50.8997 2.77486 50.8997 2.0318ZM51.3112 7.06119H53.1314V22.9002H51.3112V7.06119Z" fill="#D2ECF9"/>
<path d="M72.9074 13.303V22.9002H71.0873V13.827C71.0873 10.5653 68.919 8.42217 65.6507 8.42217C62.3824 8.42217 59.9608 10.5966 59.9608 13.8896V22.9002H58.1407V7.06119H59.9608V10.0413C61.1557 7.89812 63.3557 6.68575 66.1809 6.68575C70.201 6.68575 72.9074 9.29821 72.9074 13.303Z" fill="#D2ECF9"/>
<path d="M92.9051 27.562L91.0217 28C90.99 26.42 89.5735 25.3563 87.4684 25.3563H81.1534C78.6685 25.3563 77.0067 23.9562 77.0067 21.8756C77.0067 20.4755 77.7268 19.1771 78.8901 18.5514C77.5052 17.3077 76.6585 15.54 76.6585 13.522C76.6585 9.64237 79.7369 6.68575 83.8598 6.68575C85.4347 6.68575 86.8749 7.12376 88.0382 7.89812C88.2598 6.25555 89.5418 5.19179 91.4015 5.19179H92.5965V6.87347H91.4965C90.2066 6.87347 89.3281 7.67911 89.3281 8.92277V9.01663C90.3965 10.1977 91.0217 11.7464 91.0217 13.522C91.0217 17.4016 87.9433 20.3269 83.8598 20.3269C82.4433 20.3269 81.1217 19.9827 80.0534 19.3648C79.27 19.8028 78.8268 20.6085 78.8268 21.4454C78.8268 22.7516 79.8951 23.5886 81.462 23.5886H87.7771C90.6972 23.5886 92.7072 25.1138 92.8972 27.562M83.844 18.6139C86.8591 18.6139 89.1224 16.4082 89.1224 13.522C89.1224 10.6357 86.8591 8.39871 83.844 8.39871C80.8289 8.39871 78.534 10.6044 78.534 13.522C78.534 16.4395 80.8289 18.6139 83.844 18.6139Z" fill="#D2ECF9"/>
<path d="M112.436 4.94931H105.899V22.9081H102.156V4.94931H95.5878V1.46863H112.436V4.94931Z" fill="#D2ECF9"/>
<path d="M122.217 6.81089V10.3854H121.624C118.482 10.3854 116.622 12.2783 116.622 15.2036V22.9081H113.101V7.06119H116.622V9.39207C117.817 7.77297 119.511 6.81089 121.624 6.81089H122.217Z" fill="#D2ECF9"/>
<path d="M141.051 7.06119V22.9081H137.53V20.6398C136.208 22.2823 134.262 23.2835 131.903 23.2835C127.377 23.2835 124.013 19.709 124.013 14.9925C124.013 10.2759 127.377 6.69357 131.903 6.69357C134.262 6.69357 136.208 7.68693 137.53 9.33732V7.06901H141.051V7.06119ZM137.53 14.9846C137.53 12.1844 135.425 10.0413 132.592 10.0413C129.759 10.0413 127.63 12.1844 127.63 14.9846C127.63 17.7848 129.735 19.9202 132.592 19.9202C135.449 19.9202 137.53 17.777 137.53 14.9846Z" fill="#D2ECF9"/>
<path d="M144.264 14.9846C144.264 10.2603 147.944 6.68575 152.843 6.68575C156.048 6.68575 158.754 8.24227 160.194 10.6279L157.148 12.4582C156.301 10.9955 154.726 10.0335 152.843 10.0335C150.018 10.0335 147.873 12.1766 147.873 14.9768C147.873 17.777 150.01 19.9123 152.843 19.9123C154.726 19.9123 156.301 18.9503 157.148 17.4876L160.194 19.3179C158.746 21.7113 156.048 23.2601 152.843 23.2601C147.944 23.2601 144.264 19.6855 144.264 14.969" fill="#D2ECF9"/>
<path d="M168.25 17.0652L166.557 18.8642V22.9081H163.035V0.537842H166.557V14.2103L173.189 7.06119H177.778L170.735 14.4528L178 22.9081H173.347L168.25 17.0652Z" fill="#D2ECF9"/>
</svg>
